<?xml version="1.0" encoding="utf-8"?>
<!-- Uploaded to: SVG Repo, www.svgrepo.com, Generator: SVG Repo Mixer Tools -->
<svg fill="#000000" height="800px" width="800px" version="1.2" baseProfile="tiny" id="Layer_1" xmlns="http://www.w3.org/2000/svg" xmlns:xlink="http://www.w3.org/1999/xlink"
	  viewBox="-351 153 256 256" xml:space="preserve">
<g id="_x3C_Pill_x3E_">
	<path id="XMLID_31_" d="M-108.8,208.4c-13.1-18.8-35.5-29-58.3-26.6l0,0l0,0c-10.5,1.1-20.7,4.9-29.4,11L-321.6,280
		c-28.5,19.9-35.5,59.2-15.6,87.7c13.1,18.8,35.5,29,58.3,26.6c10.5-1.1,20.7-4.9,29.4-11l125-87.2
		C-95.9,276.2-88.9,236.9-108.8,208.4z M-311.3,309.7c-18.1,14.8-18.7,28.7-18.7,28.7s-4.9-13.1,3.1-28.2
		c8-15.1,41.7-36.8,41.7-36.8l7.3,9.3C-277.8,282.6-293.1,294.9-311.3,309.7z M-135.2,280.6l-54.8,38.2c-1.6-10-5.7-24.2-15.7-40.2
		c-13.3-21.3-27.7-29-35.5-31.7l55.5-38.7c6.3-4.4,13.4-6.9,20.6-7.7c15.5-1.6,31.3,5,40.9,18.6
		C-110.3,239.2-115.2,266.7-135.2,280.6z"/>
</g>
</svg>